<?xml version="1.0" encoding="UTF-8"?>
<svg id="Capa_1" data-name="Capa 1" xmlns="http://www.w3.org/2000/svg" xmlns:xlink="http://www.w3.org/1999/xlink" viewBox="0 0 400 400">
  <defs>
    <style>
      .cls-1 {
        fill: none;
      }

      .cls-2 {
        clip-path: url(#clippath);
      }

      .cls-3 {
        fill: #009247;
      }
    </style>
    <clipPath id="clippath">
      <rect class="cls-1" x="15.23" y="73.07" width="369.53" height="253.87"/>
    </clipPath>
  </defs>
  <g id="Grupo_40" data-name="Grupo 40">
    <g class="cls-2">
      <g id="Grupo_38" data-name="Grupo 38">
        <path id="Trazado_29" data-name="Trazado 29" class="cls-3" d="m368.92,263.35c10.07,1.42,17.09,10.74,15.67,20.81-1.07,7.61-6.76,13.76-14.27,15.42-1.17.27-2.35.47-3.52.7-1.54,1.77-.63,3.83-.73,5.78-1.46,11.5-11,20.28-22.58,20.77-16.45.19-32.89.07-49.34.04-2.97.37-5.68-1.73-6.05-4.71-.03-.27-.05-.55-.04-.83.07-3.27,2.41-5.26,6.34-5.26h47.18c6.62.34,12.46-4.27,13.69-10.78.85-1.47,1.38-2.94,0-4.41l-.04-.03c-1.09-1.16-2.49-.62-3.75-.62-100.97-.03-201.94-.03-302.91,0-1.25,0-2.66-.54-3.75.63l.03.06c-1.43,1.45-.81,2.91-.04,4.38,1.22,6.67,7.29,11.32,14.05,10.78h101.75c35.36,0,70.72,0,106.08-.03,2.86,0,5.25.48,6.49,3.4,1.14,2.76-.16,5.92-2.92,7.06-.37.15-.75.26-1.15.33-.84.1-1.68.12-2.52.06H57.66c-12.02-.01-22.16-8.93-23.7-20.85-.09-1.95.82-4.02-.72-5.79-10.29-.37-18.32-9.01-17.95-19.3.13-3.49,1.23-6.87,3.18-9.76,2.81-4.39,7.44-7.28,12.62-7.87,3.61.45,7.27.2,10.78-.72.03-13.31.06-26.62.09-39.94-.33-2.74,1.42-5.3,4.09-6.01,2.4-.73,4.98.36,6.12,2.59.63,1.3.85,2.75.64,4.18.05,12.59.09,25.19.1,37.78.24,2.69,2.34,1.4,3.49,1.4,33.04.08,66.09.1,99.13.06.95.13,1.92.1,2.86-.1,1.28-.49.31-.96-.26-1.32-11.35-11.41-22.7-22.82-34.05-34.23-20.89-20.92-41.79-41.83-62.7-62.72-.68-.68-1.37-1.35-2.04-2.04-1.22-1.24-2.47-2.31-4.41-1.4-1.55.77-2.41,2.46-2.13,4.16.03,10.45.03,20.9,0,31.35,0,4.48-1.99,7.03-5.39,7.01-3.4-.02-5.45-2.64-5.46-7.05,0-9.97.17-19.94-.07-29.91-.47-5.71,2.02-11.26,6.59-14.72.72-.27.67-.89.67-1.48-.04-22.38-.08-44.76-.12-67.14.22-5.83,5.13-10.37,10.96-10.15,1.81.07,3.58.61,5.13,1.56,8.32,4.15,16.54,8.49,24.8,12.77,4.41,2.06,7.53,6.15,8.38,10.94.01,1.96.03,3.92.05,5.87-1.02,7-6.71,12.39-13.75,13.03-7.6-.04-15.21-.07-22.81-.1-.64,0-1.48-.26-1.7.76-.04,10.09,0,20.18-.17,30.27-.06,3.4,3.14,2.7,4.52,4.23,1.18,1.3,1.83-.15,2.55-.72,11.89-9.93,29.59-8.34,39.52,3.55,1.58,1.9,2.91,3.99,3.95,6.24,1.94,4.16,5.3,7.49,9.47,9.4,5.75,2.79,10.53,7.25,13.71,12.79,0-4.57.11-9.14-.03-13.7-.21-6.88-.03-13.54,6.55-17.94,1.21-.81.62-2.23.62-3.36.03-21.28.04-42.55.03-63.8-.7-5.8,3.43-11.07,9.22-11.77,2.46-.3,4.94.27,7.02,1.62,8.33,4.17,16.6,8.47,24.86,12.8,4.31,2.04,7.34,6.07,8.09,10.78.02,1.99.04,3.97.06,5.96-1.02,7.01-6.73,12.39-13.78,12.99-7.72-.04-15.45-.08-23.17-.11-.57,0-1.21-.04-1.34.77-.03,10.08.03,20.17-.16,30.25-.06,3.4,3.12,2.72,4.52,4.22s2.06-.3,2.84-.89c11.99-9.79,29.65-8.01,39.45,3.99,1.48,1.82,2.73,3.81,3.72,5.94,1.93,4.16,5.27,7.49,9.44,9.41,5.73,2.65,10.38,7.17,13.19,12.82,1.14-.64.54-1.7.56-2.52.06-5.53,0-11.07.05-16.57-.25-4.15,1.47-8.17,4.65-10.85,1.81-1.34,2.78-3.54,2.55-5.78-.09-21.01-.06-42.02-.05-63.04-.67-5.84,3.52-11.11,9.36-11.78,2.4-.27,4.83.28,6.87,1.56,8.12,4.04,16.17,8.22,24.26,12.4,4.56,2.05,7.81,6.24,8.65,11.17-.03,2.23-.05,4.46-.07,6.69-1.23,6.74-6.85,11.81-13.69,12.34-7.72-.04-15.45-.08-23.17-.12-.57,0-1.21-.04-1.34.77-.03,10.09.03,20.17-.15,30.25-.06,3.4,3.15,2.68,4.54,4.2s2.07-.27,2.85-.85c11.97-9.8,29.61-8.04,39.41,3.93,1.49,1.82,2.75,3.83,3.74,5.97,1.94,4.15,5.28,7.48,9.44,9.41,5.87,2.61,10.59,7.27,13.26,13.12,1.94,4.42,5.47,7.94,9.89,9.87,5.66,2.52,10.2,7.02,12.77,12.65,2.05,4.5,5.64,8.12,10.11,10.21,8.56,3.96,14.41,12.13,15.41,21.51l-.1,8.09c-.62,5.07-2.77,9.84-6.16,13.66-1.12,1.33-1.28,2.13.29,2.98,3.35.76,6.8.96,10.21.57M83.85,106.29c2.21-.38,3.82-2.3,3.83-4.54.25-2.23-1.07-4.33-3.18-5.09-1.7-.85-3.4-1.75-5.11-2.62l-19.33-9.91v22c.8,1.37,2.13.75,3.22.77,4.17.08,8.35.14,12.51,0,2.7.42,5.45.22,8.06-.6m91.66,0c2.36-.34,4.09-2.4,4.01-4.79.05-2.22-1.34-4.22-3.45-4.95-5.2-2.61-10.35-5.34-15.56-7.94-2.79-1.67-5.72-3.08-8.78-4.2v21.71c.78,1.4,2.13.76,3.21.78,4.17.08,8.35.15,12.51,0,2.7.42,5.45.22,8.06-.6m67.88-.18c.78,1.4,2.13.76,3.21.78,4.17.08,8.35.15,12.51,0,2.7.42,5.45.22,8.06-.59,2.37-.3,4.14-2.35,4.07-4.74.14-2.11-1.12-4.05-3.1-4.79-4.35-2.21-8.69-4.48-13.03-6.7l-11.73-6.02v22.06Zm18.77,138.59c1-1.57,1.04-3.57.1-5.18-.73-6.08-4.66-11.31-10.29-13.71-6.18-2.81-11.11-7.8-13.85-14.02-1.7-3.9-4.82-7-8.73-8.67-6.34-2.73-11.39-7.79-14.11-14.13-1.25-3.3-3.69-6.02-6.84-7.61-7.45-3.43-13.46-9.36-16.98-16.76-4.41-8.1-14.54-11.09-22.63-6.68-.12.07-.24.13-.37.2q-4.03,2.16-.89,5.31l85.12,85.12c5.72,5.72,7.15,5.29,9.36-2.82.06-.35.1-.71.09-1.07m91.69.03c1.02-1.83,1-4.06-.04-5.88-.87-5.81-4.7-10.75-10.11-13.03-6.16-2.82-11.09-7.79-13.84-13.98-1.7-3.9-4.82-7-8.73-8.67-6.35-2.72-11.41-7.78-14.15-14.12-1.31-3.4-3.85-6.19-7.12-7.81-7.33-3.41-13.22-9.29-16.67-16.6-4.4-8.11-14.55-11.12-22.66-6.72-.12.06-.24.13-.36.2-3.98,2.13-4,2.25-.94,5.31,28.37,28.37,56.75,56.74,85.12,85.1,1.66,1.66,3.4,5.06,5.17,4.4,2.67-1,3.55-4.53,4.22-7.49.04-.24.07-.48.09-.72m-116.94-49.98c4.45,2.65,8.04,6.52,10.35,11.16,2.19,4.79,6.02,8.65,10.8,10.87,8.38,4,14.05,12.08,14.97,21.31,0,2.46,0,4.92,0,7.38-.52,5.33-2.71,10.35-6.27,14.36-1.15,1.36-1.21,2.13.32,2.98.7.98,1.75.61,2.66.61,23.45.02,46.9.02,70.35,0,.9,0,2.19.69,2.69-.83-.38-.45-.74-.93-1.15-1.34-32.76-32.81-65.53-65.6-98.3-98.38-.37-.48-.81-.89-1.31-1.22-1.87-.85-3.78-1.57-5.2.76-.72.46-.69,1.2-.69,1.91v28.63c0,.7-.08,1.46.78,1.8m-61.49,68.07c.85,1.02,2.01.58,3.03.58,23.32.03,46.64.03,69.96,0,.83.09,1.68.02,2.49-.2.61-.26.5-.98-.25-1.28-33.03-33.05-66.04-66.1-99.04-99.17-1.24-1.49-3.24-2.12-5.11-1.6-2.13.63-1.94,2.73-1.94,4.55,0,8.77.05,17.53-.04,26.29-.14,1.54.65,3.02,2,3.77,4.01,2.48,7.2,6.09,9.17,10.38,2.14,4.72,5.92,8.5,10.64,10.64,8.39,4.03,14.09,12.13,15.05,21.39v7.28c-.58,5.33-2.79,10.36-6.31,14.4-1.17,1.39-1.14,2.15.37,2.98m192.1,11.29c-1.15-.98-2.55-.57-3.83-.57-109.12-.02-218.25-.02-327.37,0-1.28,0-2.66-.43-3.81.57-3.93.7-6.69,4.26-6.38,8.24.54,4.1,4.11,7.12,8.24,6.99.72.03,1.44,0,2.16,0h328.41c4.39.51,8.38-2.59,8.97-6.98.3-3.98-2.45-7.54-6.38-8.24M73.37,160.74c.3.37.57.76.9,1.09,29.97,30,59.93,60.01,89.88,90.02,1.7,1.7,2.42,1.49,3.68-.38,5.35-7.87,3.32-18.58-4.55-23.94-.77-.52-1.58-.99-2.43-1.38-6.45-3.01-11.64-8.21-14.63-14.67-1.55-3.56-4.39-6.41-7.95-7.97-6.59-2.77-11.86-7.98-14.7-14.54-1.31-3.41-3.87-6.19-7.16-7.78-7.32-3.42-13.21-9.29-16.65-16.6-4.45-8.1-14.62-11.06-22.72-6.61-1.34.74-2.58,1.66-3.67,2.73"/>
        <path id="Trazado_30" data-name="Trazado 30" class="cls-3" d="m44.82,300.85c1.09-1.16,2.49-.63,3.74-.63,100.97-.03,201.94-.03,302.91,0,1.25,0,2.66-.54,3.75.62-2.4.03-4.81.07-7.21.07H49.14c-1.44,0-2.88-.05-4.32-.07"/>
        <path id="Trazado_31" data-name="Trazado 31" class="cls-3" d="m158.14,261.28c.57.36,1.52.85.26,1.32-.94.2-1.91.23-2.86.1-33.04,0-66.09-.02-99.14-.06-1.15,0-3.26,1.28-3.49-1.4,1.25.74,2.73,1,4.16.74h97.33c1.26,0,2.67.51,3.74-.68"/>
        <path id="Trazado_32" data-name="Trazado 32" class="cls-3" d="m49.07,83.11c.04,22.38.08,44.76.12,67.14,0,.59.04,1.21-.67,1.48-.02-21.85-.03-43.7-.03-65.54,0-1.05-.26-2.18.59-3.09"/>
        <path id="Trazado_33" data-name="Trazado 33" class="cls-3" d="m60.1,117.81c.22-1.02,1.06-.76,1.7-.76,7.6.02,15.21.05,22.81.1-3.23.77-6.57.96-9.86.57-4.88.17-9.77.08-14.65.09"/>
        <path id="Trazado_34" data-name="Trazado 34" class="cls-3" d="m151.76,117.81c.13-.81.76-.77,1.34-.77,7.72.03,15.45.07,23.17.11-3.23.76-6.56.95-9.86.56-4.88.17-9.77.08-14.65.1"/>
        <path id="Trazado_35" data-name="Trazado 35" class="cls-3" d="m243.42,117.81c.13-.81.77-.77,1.34-.77,7.72.04,15.45.08,23.17.12-3.48.73-7.04.91-10.58.55-4.64.16-9.29.08-13.93.1"/>
        <path id="Trazado_36" data-name="Trazado 36" class="cls-3" d="m41.88,262.63c-3.52.92-7.18,1.17-10.78.72,3.55-.71,7.17-.95,10.78-.72"/>
        <path id="Trazado_37" data-name="Trazado 37" class="cls-3" d="m368.94,263.35c-3.41.38-6.87.19-10.21-.57,3.41-.4,6.87-.2,10.21.57"/>
        <path id="Trazado_38" data-name="Trazado 38" class="cls-3" d="m364.6,246.14c.03-2.69.07-5.39.1-8.09,1.04,2.6,1,5.51-.1,8.09"/>
        <path id="Trazado_39" data-name="Trazado 39" class="cls-3" d="m281.62,104.82c.03-2.23.05-4.46.07-6.69,1.07,2.11,1.04,4.6-.07,6.69"/>
        <path id="Trazado_40" data-name="Trazado 40" class="cls-3" d="m190.05,104.16c-.02-1.99-.04-3.97-.06-5.96,1.04,1.84,1.06,4.09.06,5.96"/>
        <path id="Trazado_41" data-name="Trazado 41" class="cls-3" d="m33.23,300.27c1.54,1.77.63,3.83.72,5.79-1.15-1.82-.39-3.87-.72-5.79"/>
        <path id="Trazado_42" data-name="Trazado 42" class="cls-3" d="m366.08,306.05c.1-1.95-.81-4.02.73-5.78-.33,1.92.43,3.97-.73,5.78"/>
        <path id="Trazado_43" data-name="Trazado 43" class="cls-3" d="m98.36,104.11c-.01-1.96-.03-3.92-.05-5.87,1.07,1.81,1.09,4.05.05,5.87"/>
        <path id="Trazado_44" data-name="Trazado 44" class="cls-3" d="m44.81,305.28c-.77-1.46-1.39-2.93.04-4.38,0,1.46-.01,2.92-.04,4.38"/>
        <path id="Trazado_45" data-name="Trazado 45" class="cls-3" d="m355.25,300.87c1.4,1.46.87,2.94,0,4.41v-4.41"/>
        <path id="Trazado_46" data-name="Trazado 46" class="cls-3" d="m367.51,274.11c-2.04.04-4.08.12-6.12.12H35.75c-1.08,0-2.15-.08-3.23-.13,1.14-.98,2.53-.57,3.81-.57,109.12-.02,218.25-.02,327.37,0,1.28,0,2.66-.4,3.83.57"/>
        <path id="Trazado_47" data-name="Trazado 47" class="cls-3" d="m175.4,262.82c23.75-.04,47.51-.09,71.26-.16,1.32,0,2.88.72,3.96-.74.75.32.85,1.03.25,1.28-.81.23-1.65.3-2.49.2h-69.96c-1.02,0-2.18.43-3.03-.58"/>
        <path id="Trazado_48" data-name="Trazado 48" class="cls-3" d="m267.06,262.79c23.55-.03,47.1-.07,70.65-.1,1.68,0,3.36-.09,5.04-.14-.5,1.52-1.8.83-2.69.83-23.45.05-46.9.05-70.35,0-.9,0-1.95.37-2.66-.61"/>
        <path id="Trazado_49" data-name="Trazado 49" class="cls-3" d="m236.79,162.41c.03,10.78.06,21.56.09,32.35-.85-.34-.78-1.1-.78-1.8v-28.63c0-.71-.03-1.45.69-1.91"/>
        <path id="Trazado_50" data-name="Trazado 50" class="cls-3" d="m60.07,106.13l23.79.16c-2.61.82-5.36,1.02-8.06.6-4.17.15-8.34.09-12.51,0-1.09,0-2.43.61-3.22-.77"/>
        <path id="Trazado_51" data-name="Trazado 51" class="cls-3" d="m151.73,106.12l23.78.17c-2.6.82-5.36,1.02-8.06.6-4.17.16-8.34.09-12.51,0-1.08-.02-2.43.62-3.21-.78"/>
        <path id="Trazado_52" data-name="Trazado 52" class="cls-3" d="m243.39,106.11l23.78.18c-2.6.81-5.36,1.02-8.06.59-4.17.16-8.34.09-12.51,0-1.08,0-2.43.62-3.21-.78"/>
        <path id="Trazado_53" data-name="Trazado 53" class="cls-3" d="m272.99,238.09c.99,2.36.99,5.02,0,7.38,0-2.46,0-4.92,0-7.38"/>
        <path id="Trazado_54" data-name="Trazado 54" class="cls-3" d="m181.32,238.13c1.05,2.32,1.05,4.99,0,7.31v-7.31"/>
        <path id="Trazado_55" data-name="Trazado 55" class="cls-3" d="m353.83,244.74l-.04-5.88c1.04,1.82,1.05,4.05.04,5.88"/>
        <path id="Trazado_56" data-name="Trazado 56" class="cls-3" d="m262.15,244.71c.03-1.73.07-3.45.1-5.18.94,1.61.9,3.61-.1,5.18"/>
      </g>
    </g>
  </g>
</svg>