<?xml version="1.0" encoding="UTF-8"?>
<svg id="Capa_1" data-name="Capa 1" xmlns="http://www.w3.org/2000/svg" xmlns:xlink="http://www.w3.org/1999/xlink" viewBox="0 0 400 400">
  <defs>
    <style>
      .cls-1 {
        fill: none;
      }

      .cls-2 {
        clip-path: url(#clippath);
      }

      .cls-3 {
        fill: #e52528;
      }
    </style>
    <clipPath id="clippath">
      <rect class="cls-1" x="14.19" y="49.4" width="371.61" height="301.2"/>
    </clipPath>
  </defs>
  <g id="Grupo_42" data-name="Grupo 42">
    <g class="cls-2">
      <g id="Grupo_41" data-name="Grupo 41">
        <path id="Trazado_57" data-name="Trazado 57" class="cls-3" d="m30.04,282.17c.8-9.85,7.17-18.37,16.39-21.93,1.88-.48,3.07-2.33,2.74-4.24-1.2-17.59,1.26-35.24,7.23-51.84,16.33-41.06,46.11-66.2,89.56-74.96,4.36-.92,8.81-1.42,13.27-1.5,5.61.43,11.25.23,16.81-.58l-.05-.05c1.25-3.49,1.25-7.3,0-10.79l-34-.15c-7.14-.03-9.56-2.42-9.58-9.5,0-3.74-.05-7.48.03-11.21-.04-10.23,7.98-18.69,18.2-19.19h98.67c10.22.51,18.24,8.96,18.2,19.19.08,4.1.07,8.2,0,12.3.52,4.1-2.38,7.85-6.49,8.38-.66.08-1.32.08-1.97-.01-10.96.06-21.93,0-32.93.03-.72,0-1.44.09-2.16.14-1.25,3.49-1.25,7.3,0,10.79l-.05.05c5.57.82,11.22,1.01,16.83.58,52.12,3.12,95.86,40.38,107.23,91.34,2.45,12.07,3.39,24.39,2.79,36.69-.32,1.88.94,3.67,2.82,4.01,9.91,3.21,16.91,12.07,17.75,22.45-.04,4.4-.19,8.8-.08,13.19.04,1.65-.86,3.53.72,5,9.26,5.28,14.62,15.44,13.76,26.06-.24,4.47-.24,8.94,0,13.41.52,7.76-2.61,10.81-10.55,10.78-43-.2-86.03-.1-129.06-.1H24.93c-8.94,0-10.69-1.76-10.69-10.83,0-4.47.13-8.95,0-13.41-.91-11.16,5.13-21.73,15.2-26.63.73-.22.76-.82.76-1.42-.03-5.35-.08-10.7-.13-16.05m326.62,14.62c1.16-4.53,1.2-9.28.1-13.82-.75-5.3-4.93-9.47-10.23-10.19-1.28-.99-2.79-.62-4.2-.62-94.43-.02-188.86-.02-283.28,0-1.41,0-2.92-.38-4.2.62-5.31.72-9.49,4.88-10.24,10.18-1.08,4.55-1.04,9.3.11,13.83l-.03.03c.92,1.2,2.23.67,3.36.68,7.98.05,15.96.03,23.94.03l189.63-.02c3.31.63,5.61,3.67,5.3,7.03,0,3.53-1.94,5.7-5.99,6.92-.48-.05-.96-.13-1.44-.13H42.29c-1.18,0-2.44-.28-3.47.62-5.96.98-10.26,6.23-10.07,12.26.13,2.53.1,5.07-.07,7.61-.47,3.56.81,4.25,4.27,4.25,111.34-.1,222.69-.13,334.03-.08.6-.04,1.21-.04,1.81,0,1.85.25,2.54-.39,2.44-2.35-.17-3.25,0-6.53-.06-9.78.03-5.9-4.24-10.95-10.06-11.9-.79-.57-1.78-.79-2.74-.62-9.28,0-18.56.02-27.85.06-4.05-1.33-5.87-3.52-5.74-7.14-.15-3.39,2.29-6.35,5.64-6.85,8.13.04,16.26.08,24.39.11.7,0,1.46.08,1.88-.69h0ZM191.32,116.26c-1.26,3.49-1.26,7.32,0,10.81h17.33c1.26-3.49,1.26-7.32,0-10.81h-17.33m61.54-15.31c.58-9.53,0-10.16-9.4-10.16h-88.04c-7.86,0-8.6.76-8.46,8.73,0,.48.09.96.14,1.44.63,1.38,1.87.73,2.8.73,33.39.04,66.78.04,100.17,0,.93,0,2.18.66,2.8-.73m-12.88,41.28c-1.84-.61-3.78-.8-5.7-.56-22.87-.04-45.75-.04-68.62,0-1.92-.23-3.86-.03-5.69.58-1.69.07-3.39.03-5.06.23-21.08,2.31-40.9,11.17-56.66,25.35-20.04,17.44-32.3,42.15-34.04,68.66-.69,5.74-.94,11.52-.75,17.29-.29,3.47.52,4.7,4.41,4.67,88.09-.14,176.18-.17,264.27-.1h2.54c.95,0,1.76-.25,1.73-1.35.35-6.6.14-13.22-.61-19.79-3.59-51.2-44.57-91.82-95.8-94.95"/>
        <path id="Trazado_58" data-name="Trazado 58" class="cls-3" d="m120.41,63.1c.08,3.87-2.99,7.06-6.85,7.15-1.4.03-2.77-.36-3.95-1.12-3.51-2.35-6.53-5.36-8.88-8.88-1.75-2.91-1.17-6.65,1.37-8.89,2.42-2.4,6.26-2.61,8.93-.48,2.79,2.48,5.45,5.09,7.98,7.83,1.03,1.21,1.53,2.78,1.39,4.36"/>
        <path id="Trazado_59" data-name="Trazado 59" class="cls-3" d="m86.76,109.78c-3.85-.57-6.51-4.15-5.94-8,0-.03,0-.06.01-.09.47-3.76,3.75-6.52,7.53-6.34,2.65-.12,5.3-.11,7.95,0,3.91-.12,7.27,2.75,7.76,6.63.27,3.88-2.5,7.31-6.35,7.86l-10.96-.05"/>
        <path id="Trazado_60" data-name="Trazado 60" class="cls-3" d="m302.21,109.83c-3.84-.54-6.62-3.96-6.36-7.83.49-3.88,3.85-6.75,7.76-6.63,2.65-.11,5.31-.12,7.95,0,3.78-.19,7.07,2.57,7.54,6.33.63,3.83-1.97,7.45-5.8,8.08-.04,0-.08.01-.12.02l-10.96.05"/>
        <path id="Trazado_61" data-name="Trazado 61" class="cls-3" d="m300.22,57.61c-.04,1.3-.57,2.54-1.49,3.47-2.4,2.7-4.96,5.25-7.68,7.64-2.85,2.32-7,2.05-9.52-.63-2.56-2.6-2.74-6.72-.4-9.53,2.28-2.65,4.74-5.13,7.37-7.44,2.12-1.97,5.29-2.3,7.77-.81,2.67,1.42,4.24,4.3,3.97,7.31"/>
        <path id="Trazado_62" data-name="Trazado 62" class="cls-3" d="m249.3,76.23h-98.67c1.15-.98,2.54-.61,3.83-.61,30.34-.02,60.69-.02,91.03,0,1.29,0,2.68-.38,3.83.61"/>
        <path id="Trazado_63" data-name="Trazado 63" class="cls-3" d="m371.97,300.36c-1.57-1.46-.67-3.34-.72-5-.11-4.39.04-8.79.08-13.19.65,6.04.86,12.11.64,18.18"/>
        <path id="Trazado_64" data-name="Trazado 64" class="cls-3" d="m30.04,282.17c.05,5.35.09,10.7.13,16.05,0,.6-.03,1.2-.76,1.42-.21-5.83,0-11.67.63-17.47"/>
        <path id="Trazado_65" data-name="Trazado 65" class="cls-3" d="m240.73,127.69c-5.61.43-11.26.23-16.83-.58,5.62-.34,11.25-.14,16.83.58"/>
        <path id="Trazado_66" data-name="Trazado 66" class="cls-3" d="m176.04,127.11c-5.57.82-11.22,1.01-16.83.58,5.58-.72,11.22-.92,16.83-.58"/>
        <path id="Trazado_67" data-name="Trazado 67" class="cls-3" d="m223.94,127.06c-1.25-3.49-1.25-7.3,0-10.79v10.79"/>
        <path id="Trazado_68" data-name="Trazado 68" class="cls-3" d="m175.98,116.27c1.25,3.49,1.25,7.3,0,10.79v-10.79"/>
        <path id="Trazado_69" data-name="Trazado 69" class="cls-3" d="m302.21,109.83l10.96-.05c-3.58,1.02-7.37,1.04-10.96.05"/>
        <path id="Trazado_70" data-name="Trazado 70" class="cls-3" d="m86.76,109.78l10.96.05c-3.59.99-7.38.97-10.96-.05"/>
        <path id="Trazado_71" data-name="Trazado 71" class="cls-3" d="m64.21,236.5c0,5.67.17,11.36-.12,17.01-.17,3.37.91,4.18,4.22,4.18,53.2-.1,106.41-.13,159.61-.07,34.58,0,69.16-.05,103.75.08,3.39,0,4.33-.96,4.18-4.24-.26-5.42-.07-10.85-.07-16.28.76,6.58.97,13.2.63,19.81.04,1.11-.78,1.37-1.73,1.35h-2.54c-88.09,0-176.18.03-264.27.1-3.9,0-4.7-1.2-4.41-4.67-.19-5.77.06-11.55.75-17.29"/>
        <path id="Trazado_72" data-name="Trazado 72" class="cls-3" d="m346.54,272.79c-2.05.03-4.1.08-6.15.08H56.29c-.48,0-.96-.07-1.44-.1,1.28-1,2.79-.62,4.2-.62,94.43-.02,188.86-.02,283.28,0,1.41,0,2.92-.38,4.2.62"/>
        <path id="Trazado_73" data-name="Trazado 73" class="cls-3" d="m260.99,311.43c-1.04.93-2.3.57-3.47.57-72.66.03-145.32.05-217.98.06-.24-.02-.48-.06-.71-.13,1.04-.9,2.3-.62,3.47-.62,72.42-.02,144.83-.02,217.25,0,.48,0,.96.08,1.44.13"/>
        <path id="Trazado_74" data-name="Trazado 74" class="cls-3" d="m44.69,296.81h213.17c1.29,0,2.68-.36,3.81.67l-189.68.03c-7.98,0-15.96,0-23.94-.03-1.13,0-2.44.52-3.36-.68"/>
        <path id="Trazado_75" data-name="Trazado 75" class="cls-3" d="m147.08,100.95h105.77c-.63,1.39-1.87.73-2.8.73-33.39.04-66.78.04-100.17,0-.93,0-2.18.66-2.8-.73"/>
        <path id="Trazado_76" data-name="Trazado 76" class="cls-3" d="m239.97,142.23c-5.91.03-11.81.07-17.72.08-20.04.05-40.09.08-60.13.11-.72,0-1.43-.13-2.15-.19,1.83-.61,3.77-.81,5.69-.58,22.87-.04,45.75-.04,68.62,0,1.92-.23,3.86-.03,5.69.58"/>
        <path id="Trazado_77" data-name="Trazado 77" class="cls-3" d="m361.11,311.93l-28.23.08c-.84.15-1.71-.08-2.36-.64,9.28-.02,18.56-.04,27.85-.06.96-.17,1.95.05,2.74.62"/>
        <path id="Trazado_78" data-name="Trazado 78" class="cls-3" d="m330.41,297.38c2.28-.77,4.71-.96,7.08-.56,6.4-.1,12.8,0,19.2,0-.42.78-1.19.7-1.88.69-8.13-.03-16.26-.07-24.39-.11"/>
        <path id="Trazado_79" data-name="Trazado 79" class="cls-3" d="m44.61,282.95l.11,13.83c-1.16-4.53-1.2-9.28-.11-13.83"/>
        <path id="Trazado_80" data-name="Trazado 80" class="cls-3" d="m356.67,296.78c.03-4.61.07-9.22.1-13.82,1.1,4.55,1.06,9.29-.1,13.82"/>
        <path id="Trazado_81" data-name="Trazado 81" class="cls-3" d="m208.63,127.06v-10.81c1.26,3.49,1.26,7.32,0,10.81"/>
        <path id="Trazado_82" data-name="Trazado 82" class="cls-3" d="m191.32,116.26v10.81c-1.26-3.49-1.26-7.32,0-10.81"/>
        <path id="Trazado_83" data-name="Trazado 83" class="cls-3" d="m163.89,156.12h1.81c4.15-.22,7.69,2.96,7.9,7.11,0,.04,0,.07,0,.11-.02,4.07-3.34,7.34-7.4,7.32-.12,0-.24,0-.36-.01-17.13.07-33.7,6.13-46.82,17.13-14.43,11.8-23.67,28.77-25.76,47.29-.11.84-.27,1.67-.46,2.49-.49,3.95-4.09,6.76-8.04,6.27-3.95-.49-6.76-4.09-6.27-8.04.02-.19.06-.38.09-.57,3.2-33.23,25.14-61.69,56.45-73.26,9.2-3.62,18.97-5.59,28.85-5.83"/>
        <path id="Trazado_84" data-name="Trazado 84" class="cls-3" d="m294.8,311.49c-3.81.15-7.02-2.82-7.17-6.63,0-.22,0-.45,0-.67.05-3.92,3.24-7.08,7.17-7.09,4.06.06,7.31,3.39,7.28,7.44-.12,3.93-3.38,7.04-7.31,6.98"/>
      </g>
    </g>
  </g>
</svg>