<?xml version="1.0" encoding="UTF-8"?>
<svg id="Capa_1" data-name="Capa 1" xmlns="http://www.w3.org/2000/svg" xmlns:xlink="http://www.w3.org/1999/xlink" viewBox="0 0 400 400">
  <defs>
    <style>
      .cls-1 {
        fill: none;
      }

      .cls-2 {
        clip-path: url(#clippath);
      }

      .cls-3 {
        fill: #009247;
      }
    </style>
    <clipPath id="clippath">
      <rect class="cls-1" x="12.42" y="12.65" width="375.16" height="374.71"/>
    </clipPath>
  </defs>
  <g id="Grupo_44" data-name="Grupo 44">
    <g class="cls-2">
      <g id="Grupo_43" data-name="Grupo 43">
        <path id="Trazado_85" data-name="Trazado 85" class="cls-3" d="m382.48,206.46c4.01.8,5.1,3.6,5.1,7.25-.67,19.35-13.91,35.99-32.61,40.99-2.69.69-5.45,1.09-8.18,1.63,1.01,2.4,1.88,4.85,2.6,7.35,2.61,9.18-.6,19.02-8.12,24.9-25,20.82-50.15,41.47-75.17,62.29-9.09,7.69-20.67,11.8-32.57,11.59-47.46-.07-94.93,0-142.39-.1-3.03,0-3.98.66-3.78,3.75.29,4.76.13,9.52.05,14.27.38,3.46-2.12,6.56-5.58,6.94-.5.05-1,.05-1.49-.02-21.72.03-43.44,0-65.16.07-2.16,0-2.66-.73-2.53-2.69.2-3.14-.99-7.26.58-9.17,1.66-2.01,5.93-.59,9.08-.61,16.35-.06,32.7-.09,49.05.03,2.67,0,3.68-.41,3.66-3.46-.14-29.03-.14-58.06,0-87.09,0-2.94-.95-3.27-3.48-3.26-18.55.1-37.09,0-55.64.11-2.45,0-3.52-.41-3.25-3.11.3-3-.92-6.97.59-8.82,1.59-1.97,5.69-.59,8.68-.59,18.67-.06,37.34-.06,56.01,0,2.06-.33,4.16-.09,6.09.69.89.51,1.58.04,2.28-.54,4.81-4.02,9.65-8.02,15.19-12.61-2.79,0-4.69.04-6.6,0-15.11-.36-30.28.96-45.34-.72-18.33-2.9-32.82-17.06-36.15-35.31-.52-2.5-.76-5.06-.71-7.62-.12-3.05,2.07-5.7,5.08-6.15,5.75,0,11.51.06,17.26,0,.84,0,1.98.53,2.46-.77.6-75.74,53.19-141.13,127.04-157.96,6.37-1.56,12.86-2.59,19.4-3.09,1.53.38,3.15.2,4.55-.51l4.95-.19c1.13-2.63,1.39-5.55.74-8.34.62-3.52.37-7.13-.73-10.52l-11.57-.19v-12.23h36.5v12.23l-11.57.19c-1.13,2.63-1.39,5.56-.73,8.34-.62,3.52-.37,7.13.73,10.53l4.96.19c1.41.71,3.02.89,4.55.51,29.9,2.77,58.4,14,82.14,32.4,31.67,23.87,53.41,58.59,61.06,97.5,1.97,10.27,3.06,20.69,3.24,31.14.48,1.3,1.62.77,2.46.78,5.75.03,11.51,0,17.26,0m-255.61,37.24l83.56.03c.49.03.97.09,1.46.09,43.63,0,87.27,0,130.9,0,1.34.15,2.69-.06,3.91-.63,1.45-.03,2.9-.2,4.33-.51,11.66-2.7,20.72-11.88,23.26-23.58-5.5-1.33-11.23-1.43-16.78-.32-1.22.04-2.44.12-3.66.12H46.43c-1.22,0-2.44-.07-3.66-.11-4.62-.7-9.31-.88-13.98-.55-.95-.05-2.24-.6-2.8.87.22.82.43,1.64.65,2.45,3.69,12.05,14.37,20.63,26.93,21.63.91.3,1.86.49,2.81.59,23.49,0,46.99-.03,70.48-.09m-38.67,106.15c.48.04.97.11,1.45.11h145.62c1.33.18,2.68-.02,3.89-.59,7.46-.58,14.48-3.75,19.85-8.95,13.62-11.25,27.24-22.5,40.87-33.76,11.08-9.17,22.19-18.3,33.2-27.55,5.14-4.03,6.04-11.46,2.02-16.6-1.96-2.5-4.83-4.1-7.98-4.46-3.81-.23-7.55,1.1-10.36,3.68-18.01,12.89-36.03,25.74-54.07,38.57-5.37,4.36-11.11,8.25-17.14,11.64-11.93,0-23.87-.04-35.8,0-14.24.02-28.49.07-42.73.14-10.19-.97-17.66-10.01-16.69-20.2.82-8.6,7.46-15.49,16.02-16.62l42.04.07c.73.11,1.47-.1,2.03-.59,3.63-.28,6.73-2.73,7.85-6.19,1.21-3.17.43-6.76-2-9.14-2.15-2.2-5.15-3.34-8.22-3.13-26.82.04-53.62.04-80.42,0-3.8-.1-7.51,1.14-10.48,3.5-9.78,8-19.43,16.17-29.13,24.27-1,.71-.63,1.77-.63,2.68-.02,20.07-.02,40.14,0,60.22,0,.99-.54,2.24.79,2.92m123-62.72l-40.95-.11c-.85-.14-1.72.11-2.38.67-3.27.53-5.49,3.61-4.95,6.88.41,2.54,2.41,4.54,4.95,4.95,1.01.99,2.29.66,3.46.66,22.51.02,45.03.02,67.54,0,1.03,0,2.21.43,3.07-.59,12-8.52,24-17.03,35.99-25.55,8.06-5.73,16.11-11.48,24.78-17.67h-73.21c.7,1.85,1.19,3.77,1.44,5.73.02,2.23.03,4.46.05,6.69-1.4,10.04-9.67,17.71-19.79,18.34m138.93-81.59c-.25-4.87-.26-9.76-.79-14.6-5.3-49.53-34.71-93.26-78.59-116.84-29.38-16.15-63.45-21.61-96.41-15.45-40.39,6.76-76.14,30.05-98.66,64.26-16.65,24.34-25.55,53.15-25.54,82.64.76,1.47,2.14.9,3.26.9,97.83.03,195.65.03,293.48,0,1.12,0,2.5.56,3.26-.9"/>
        <path id="Trazado_86" data-name="Trazado 86" class="cls-3" d="m44.05,324.95c10.2-.04,18.5,8.21,18.54,18.41,0,.14,0,.28,0,.41-.13,10.2-8.35,18.44-18.54,18.6-10.35-.12-18.72-8.45-18.88-18.8.08-10.36,8.53-18.69,18.89-18.62m-.21,24.88c3.3-.09,5.99-2.68,6.21-5.97.19-3.32-2.35-6.17-5.67-6.36-.11,0-.23,0-.34,0-3.31-.05-6.09,2.49-6.32,5.8.03,3.44,2.69,6.28,6.11,6.54"/>
        <path id="Trazado_87" data-name="Trazado 87" class="cls-3" d="m37.51,205.71c-.48,1.3-1.62.77-2.46.77-5.75.04-11.51,0-17.26,0,3.25-.84,6.62-1.06,9.95-.64,3.24-.19,6.49-.08,9.76-.11"/>
        <path id="Trazado_88" data-name="Trazado 88" class="cls-3" d="m382.48,206.46c-5.75,0-11.51.06-17.26,0-.84,0-1.98.53-2.46-.78,5.31.03,10.61.03,15.92.09,1.3,0,2.68-.35,3.81.67"/>
        <path id="Trazado_89" data-name="Trazado 89" class="cls-3" d="m206.82,43.93c-1.1-3.4-1.35-7.01-.73-10.53-.65-2.78-.4-5.7.73-8.33v18.86"/>
        <path id="Trazado_90" data-name="Trazado 90" class="cls-3" d="m193.46,25.07c1.1,3.4,1.35,7.01.73,10.52.65,2.79.39,5.71-.74,8.34v-18.86"/>
        <path id="Trazado_91" data-name="Trazado 91" class="cls-3" d="m218.39,24.88v-12.23c1.27,3.98,1.27,8.25,0,12.23"/>
        <path id="Trazado_92" data-name="Trazado 92" class="cls-3" d="m181.89,12.65v12.23c-1.27-3.98-1.27-8.25,0-12.23"/>
        <path id="Trazado_93" data-name="Trazado 93" class="cls-3" d="m216.33,44.63c-1.53.38-3.14.2-4.55-.51,1.53-.36,3.13-.18,4.55.51"/>
        <path id="Trazado_94" data-name="Trazado 94" class="cls-3" d="m188.5,44.15c-1.41.71-3.02.89-4.55.51,1.41-.69,3.02-.87,4.55-.51"/>
        <path id="Trazado_95" data-name="Trazado 95" class="cls-3" d="m50.15,205.6c1.46.06,2.92.19,4.38.19h291.24c1.46,0,2.92-.12,4.38-.19-.76,1.47-2.14.9-3.26.9-97.83.03-195.65.03-293.47,0-1.12,0-2.5.56-3.26-.9"/>
        <path id="Trazado_96" data-name="Trazado 96" class="cls-3" d="m88.24,349.19c49.35,0,98.7.01,148.04.04.96,0,1.93.09,2.9.14-1.21.57-2.57.77-3.89.59H89.68c-.48,0-.97-.07-1.46-.11-.03-.22-.01-.45.04-.67"/>
        <path id="Trazado_97" data-name="Trazado 97" class="cls-3" d="m210.31,243.25c1.58-.05,3.16-.13,4.76-.13,43.52-.04,87.05-.07,130.57-.09.36.03.72.09,1.07.18-1.22.56-2.58.78-3.91.63h-130.9c-.48,0-.97-.06-1.46-.09l-.12-.49"/>
        <path id="Trazado_98" data-name="Trazado 98" class="cls-3" d="m210.31,243.24l.12.49-83.56-.03c.02-.17.06-.34.1-.51l83.34.05"/>
        <path id="Trazado_99" data-name="Trazado 99" class="cls-3" d="m245.57,311.94c-1.03.66-2.28.91-3.49.7-23.84,0-47.68,0-71.52,0-1.2.22-2.45.02-3.52-.58,14.24-.05,28.49-.1,42.73-.14h35.8"/>
        <path id="Trazado_100" data-name="Trazado 100" class="cls-3" d="m167.89,299.53l74.07.06c-.87,1.03-2.04.59-3.07.59-22.51.03-45.02.03-67.53,0-1.18,0-2.46.33-3.46-.66"/>
        <path id="Trazado_101" data-name="Trazado 101" class="cls-3" d="m126.97,243.19c-.04.17-.08.34-.1.51-23.49.04-46.99.07-70.48.09-.96-.1-1.9-.3-2.82-.59,17.77-.03,35.54-.06,53.31-.09,6.7,0,13.41.05,20.09.08"/>
        <path id="Trazado_102" data-name="Trazado 102" class="cls-3" d="m88.24,349.19c-.06.22-.07.44-.04.67-1.33-.67-.79-1.92-.79-2.92-.03-20.07-.03-40.14,0-60.22,0-.92-.37-1.98.63-2.68.03,20.14.06,40.28.1,60.42,0,1.57.08,3.15.12,4.72"/>
        <path id="Trazado_103" data-name="Trazado 103" class="cls-3" d="m166.35,275.24c.91-.31,1.85-.51,2.81-.61,13.76,0,27.51.06,41.27.1-.56.48-1.3.7-2.03.59l-42.04-.07"/>
        <path id="Trazado_104" data-name="Trazado 104" class="cls-3" d="m211.21,287.14c-.94.58-2.06.8-3.15.61-13.39,0-26.78-.02-40.17-.05.65-.56,1.53-.81,2.38-.67l40.94.11"/>
        <path id="Trazado_105" data-name="Trazado 105" class="cls-3" d="m374.28,219.12l-16.78-.32c5.55-1.12,11.28-1.01,16.78.32"/>
        <path id="Trazado_106" data-name="Trazado 106" class="cls-3" d="m42.77,218.81l-16.78.32c.56-1.46,1.86-.91,2.8-.87,4.66-.34,9.35-.16,13.98.55"/>
        <path id="Trazado_107" data-name="Trazado 107" class="cls-3" d="m230.95,262.1c1.13,2.08,1.15,4.59.05,6.69l-.05-6.69"/>
        <path id="Trazado_108" data-name="Trazado 108" class="cls-3" d="m187.64,82.02c-19.88,1.93-38.99,8.66-55.68,19.62-5.53,3.56-10.74,7.58-15.57,12.04-1.48,1.38-2.24,1.13-3.39-.21-2.12-2.49-6-4.76-6.12-7.31-.14-2.69,4.22-4.52,6.72-6.55,19.19-15.84,42.43-25.98,67.08-29.28,2.05-.28,4.09-.58,6.13-.87,2.02.4,4.12.24,6.06-.48q7.27-.28,7.27,6.84v.36q0,5.02-5.07,5.24c-2.49-.39-5.03-.19-7.43.57"/>
        <path id="Trazado_109" data-name="Trazado 109" class="cls-3" d="m97.36,115c2.76,2.46,5.42,4.94,8.22,7.25,1.33,1.1.58,1.8-.12,2.68-2.85,3.64-5.73,7.25-8.48,10.97-.89,1.2-1.45,1.44-2.88.64-9.32-5.26-9.46-5.69-2.95-13.97,1.96-2.49,4.01-4.89,6.21-7.57"/>
        <path id="Trazado_110" data-name="Trazado 110" class="cls-3" d="m187.64,82.02c2.4-.76,4.94-.96,7.43-.57-2.4.74-4.94.93-7.43.57"/>
        <path id="Trazado_111" data-name="Trazado 111" class="cls-3" d="m192.88,69c-1.94.72-4.03.88-6.06.48,1.94-.72,4.03-.88,6.06-.48"/>
      </g>
    </g>
  </g>
</svg>